Coordinates
version=1
nRows=7
nColumns=40
inDegrees=yes

Units are S.I. units (second, meters, Newtons, ...)
If the header above contains a line with 'inDegrees', this indicates whether rotational values are in degrees (yes) or radians (no).

endheader
time	pelvis_tilt	pelvis_list	pelvis_rotation	pelvis_tx	pelvis_ty	pelvis_tz	hip_flexion_r	hip_adduction_r	hip_rotation_r	knee_angle_r	knee_angle_r_beta	ankle_angle_r	subtalar_angle_r	mtp_angle_r	hip_flexion_l	hip_adduction_l	hip_rotation_l	knee_angle_l	knee_angle_l_beta	ankle_angle_l	subtalar_angle_l	mtp_angle_l	lumbar_extension	lumbar_bending	lumbar_rotation	arm_flex_r	arm_add_r	arm_rot_r	elbow_flex_r	pro_sup_r	wrist_flex_r	wrist_dev_r	arm_flex_l	arm_add_l	arm_rot_l	elbow_flex_l	pro_sup_l	wrist_flex_l	wrist_dev_l
      4.35000000	    -20.16508563	      4.12425308	     -3.31056641	     -0.39902624	      0.79677873	     -1.00829861	     29.88357116	     -3.39979714	      1.49009741	     94.54172496	      1.65006438	    -13.02894943	      0.00000000	      0.00000000	     60.48634103	      3.24463406	     -8.39238674	     62.03021578	      1.08263150	     16.78985065	      0.00000000	      0.00000000	     -7.32996985	     -4.15239488	      4.52031078	     89.91684790	    -13.97028947	     13.36100532	     41.80899501	     73.60403806	      0.00000000	      0.00000000	     89.91473921	    -25.59166114	     10.51387068	     48.21862744	     74.99694363	      0.00000000	      0.00000000
      4.35500000	    -20.27191729	      4.28631897	     -3.36438522	     -0.39915948	      0.79593875	     -1.00859785	     30.03459223	     -3.53823895	      1.60776994	     94.56900090	      1.65054044	    -13.45609892	      0.00000000	      0.00000000	     60.67116852	      3.28992679	     -8.60051182	     62.13814049	      1.08451514	     16.86770522	      0.00000000	      0.00000000	     -7.28615196	     -4.24521742	      4.55369696	     89.91656042	    -14.26222966	     12.98595071	     42.00857522	     82.10337523	      0.00000000	      0.00000000	     89.91560626	    -25.90777187	     10.15406458	     48.44553720	     83.60184379	      0.00000000	      0.00000000
      4.36000000	    -20.33616600	      4.31011973	     -3.37320931	     -0.39935103	      0.79503136	     -1.00879603	     30.09255200	     -3.53380687	      1.60220265	     94.58455723	      1.65081195	    -13.55892243	      0.00000000	      0.00000000	     60.88328287	      3.32291046	     -8.57240942	     62.35576208	      1.08831336	     16.93403214	      0.00000000	      0.00000000	     -7.27331914	     -4.18910368	      4.55053676	     89.91694018	    -14.23719780	     12.96080127	     42.02682777	     81.95671170	      0.00000000	      0.00000000	     89.91619484	    -25.95213421	     10.01260591	     48.59707416	     83.55531227	      0.00000000	      0.00000000
      4.36500000	    -20.39501300	      4.36293235	     -3.38731834	     -0.39951826	      0.79427103	     -1.00902714	     30.14680345	     -3.57110047	      1.61707377	     94.59410278	      1.65097855	    -13.62254966	      0.00000000	      0.00000000	     61.05514570	      3.36174080	     -8.60676490	     62.51566711	      1.09110423	     17.00892552	      0.00000000	      0.00000000	     -7.27598495	     -4.16680140	      4.59243761	     89.91714136	    -14.28213004	     12.90297289	     42.10219555	     82.01122812	      0.00000000	      0.00000000	     89.91687035	    -25.93835795	      9.86809115	     48.75018279	     83.46936176	      0.00000000	      0.00000000
      4.37000000	    -20.46987649	      4.40264444	     -3.43455395	     -0.39955379	      0.79337243	     -1.00925273	     30.19054408	     -3.57884019	      1.65739424	     94.58997713	      1.65090654	    -13.65096895	      0.00000000	      0.00000000	     61.24674425	      3.35721034	     -8.65322705	     62.71732429	      1.09462381	     17.11148673	      0.00000000	      0.00000000	     -7.23667131	     -4.12608379	      4.64138731	     89.91716784	    -14.27965687	     12.87247779	     42.08488917	     82.10805646	      0.00000000	      0.00000000	     89.91725460	    -25.96781167	      9.77105376	     48.87425489	     83.43959168	      0.00000000	      0.00000000
      4.37500000	    -20.50717229	      4.43528684	     -3.42764472	     -0.39968912	      0.79252258	     -1.00946420	     30.19828805	     -3.55502106	      1.68524685	     94.59333574	      1.65096516	    -13.68053846	      0.00000000	      0.00000000	     61.40724832	      3.39066333	     -8.67852853	     62.90703211	      1.09793483	     17.23895021	      0.00000000	      0.00000000	     -7.24919640	     -4.08347317	      4.63853234	     89.91736299	    -14.28215981	     12.89075166	     42.13310242	     81.74639248	      0.00000000	      0.00000000	     89.91792890	    -26.01442949	      9.74988596	     49.01948864	     83.20520740	      0.00000000	      0.00000000
      4.38000000	    -20.59448934	      4.50373939	     -3.46662393	     -0.39981372	      0.79172770	     -1.00974680	     30.28299858	     -3.60608008	      1.72757103	     94.58885861	      1.65088702	    -13.83566428	      0.00000000	      0.00000000	     61.59570762	      3.42595582	     -8.72839466	     63.04415890	      1.10032815	     17.26891965	      0.00000000	      0.00000000	     -7.21534626	     -4.06974826	      4.70573312	     89.91759996	    -14.31379185	     12.76325066	     42.16844243	     82.09534912	      0.00000000	      0.00000000	     89.91840874	    -25.94771556	      9.44215854	     49.14873072	     83.45670004	      0.00000000	      0.00000000
